<?xml version="1.0" encoding="UTF-8" standalone="no"?>
<!DOCTYPE svg PUBLIC "-//W3C//DTD SVG 1.1//EN"
 "http://www.w3.org/Graphics/SVG/1.1/DTD/svg11.dtd">
<!-- Generated by graphviz version 2.38.0 (20140413.2041)
 -->
<!-- Title: ch5 Pages: 1 -->
<svg width="959pt" height="453pt"
 viewBox="0.00 0.00 958.50 453.00" xmlns="http://www.w3.org/2000/svg" xmlns:xlink="http://www.w3.org/1999/xlink">
<g id="graph0" class="graph" transform="scale(1 1) rotate(0) translate(4 449)">
<title>ch5</title>
<polygon fill="white" stroke="none" points="-4,4 -4,-449 954.5,-449 954.5,4 -4,4"/>
<g id="clust1" class="cluster"><title>cluster_algebra</title>
<g id="a_clust1"><a xlink:title="I can simplify expressions, and use the properties of equality to gather terms together, form zero pairs and reciprocal pairs, and isolate a variable.">
<polygon fill="none" stroke="black" points="8,-8 8,-329 492,-329 492,-8 8,-8"/>
<text text-anchor="middle" x="250" y="-313.8" font-family="Times,serif" font-size="14.00">Algebra</text>
</a>
</g>
</g>
<g id="clust2" class="cluster"><title>cluster_ape</title>
<g id="a_clust2"><a xlink:title="I can simplify expressions, and use the properties of equality to gather terms together, form zero pairs and reciprocal pairs, and isolate a variable.">
<polygon fill="lightgrey" stroke="lightgrey" points="270,-192 270,-267 484,-267 484,-192 270,-192"/>
<text text-anchor="middle" x="377" y="-251.8" font-family="Times,serif" font-size="14.00">Making zeros</text>
</a>
</g>
</g>
<g id="clust4" class="cluster"><title>cluster_mpe</title>
<g id="a_clust4"><a xlink:title="I can simplify expressions, and use the properties of equality to gather terms together, form zero pairs and reciprocal pairs, and isolate a variable.">
<polygon fill="lightgrey" stroke="lightgrey" points="246,-109 246,-184 484,-184 484,-109 246,-109"/>
<text text-anchor="middle" x="365" y="-168.8" font-family="Times,serif" font-size="14.00">Making ones</text>
</a>
</g>
</g>
<g id="clust6" class="cluster"><title>cluster_simplifying</title>
<g id="a_clust6"><a xlink:title="I can simplify expressions, and use the properties of equality to gather terms together, form zero pairs and reciprocal pairs, and isolate a variable.">
<polygon fill="none" stroke="black" points="16,-16 16,-298 238,-298 238,-16 16,-16"/>
<text text-anchor="middle" x="127" y="-282.8" font-family="Times,serif" font-size="14.00">Simplifying expressions</text>
</a>
</g>
</g>
<g id="clust7" class="cluster"><title>cluster_ip</title>
<g id="a_clust7"><a xlink:title="I can simplify expressions, and use the properties of equality to gather terms together, form zero pairs and reciprocal pairs, and isolate a variable.">
<polygon fill="lightgrey" stroke="lightgrey" points="24,-24 24,-101 216,-101 216,-24 24,-24"/>
<text text-anchor="middle" x="120" y="-85.8" font-family="Times,serif" font-size="14.00">Getting rid of zeros and ones</text>
</a>
</g>
</g>
<g id="clust8" class="cluster"><title>cluster_dp</title>
<g id="a_clust8"><a xlink:title="I can simplify expressions, and use the properties of equality to gather terms together, form zero pairs and reciprocal pairs, and isolate a variable.">
<polygon fill="lightgrey" stroke="lightgrey" points="27,-109 27,-184 181,-184 181,-109 27,-109"/>
<text text-anchor="middle" x="104" y="-168.8" font-family="Times,serif" font-size="14.00">Dealing with parentheses</text>
</a>
</g>
</g>
<g id="clust9" class="cluster"><title>cluster_cap</title>
<g id="a_clust9"><a xlink:title="I can simplify expressions, and use the properties of equality to gather terms together, form zero pairs and reciprocal pairs, and isolate a variable.">
<polygon fill="lightgrey" stroke="lightgrey" points="24,-192 24,-267 230,-267 230,-192 24,-192"/>
<text text-anchor="middle" x="127" y="-251.8" font-family="Times,serif" font-size="14.00">Regrouping and reordering</text>
</a>
</g>
</g>
<!-- zp -->
<g id="node1" class="node"><title>zp</title>
<g id="a_node1"><a xlink:title="I know that a number and its opposite add to make zero, and I can use this fact to eliminate terms">
<polygon fill="white" stroke="white" points="476,-236 422,-236 422,-200 476,-200 476,-236"/>
<text text-anchor="middle" x="449" y="-214.3" font-family="Times,serif" font-size="14.00">ZP</text>
</a>
</g>
</g>
<!-- ape -->
<g id="node2" class="node"><title>ape</title>
<g id="a_node2"><a xlink:title="When solving equations, I know that, to get a new equation that is valid, I must add or subtract the same thing to both sides of my original equation">
<polygon fill="white" stroke="white" points="404,-236 350,-236 350,-200 404,-200 404,-236"/>
<text text-anchor="middle" x="377" y="-214.3" font-family="Times,serif" font-size="14.00">APE</text>
</a>
</g>
</g>
<!-- zp&#45;&#45;ape -->
<g id="edge1" class="edge"><title>zp&#45;&#45;ape</title>
<path fill="none" stroke="black" d="M421.75,-218C415.927,-218 410.104,-218 404.281,-218"/>
</g>
<!-- mpe -->
<g id="node5" class="node"><title>mpe</title>
<g id="a_node5"><a xlink:title="When solving equations, I know that, to get a new equation that is valid, I must multiply or divide by the same thing on both sides of my original equation">
<polygon fill="white" stroke="white" points="404,-153 350,-153 350,-117 404,-117 404,-153"/>
<text text-anchor="middle" x="377" y="-131.3" font-family="Times,serif" font-size="14.00">MPE</text>
</a>
</g>
</g>
<!-- ape&#45;&#45;mpe -->
<!-- lg5 -->
<g id="node16" class="node"><title>lg5</title>
<g id="a_node16"><a xlink:title="Learning Goal 4: I can combine the addition and multiplication properties to solve inequalities">
<polygon fill="none" stroke="black" points="678.5,-153 523.5,-153 523.5,-117 678.5,-117 678.5,-153"/>
<text text-anchor="middle" x="601" y="-131.3" font-family="Times,serif" font-size="14.00">5. Algebra of inequalities</text>
</a>
</g>
</g>
<!-- ape&#45;&#45;lg5 -->
<!-- term -->
<g id="node3" class="node"><title>term</title>
<g id="a_node3"><a xlink:title="I can identify a term, tell when two terms are like terms, and combine like terms.">
<polygon fill="white" stroke="white" points="332,-236 278,-236 278,-200 332,-200 332,-236"/>
<text text-anchor="middle" x="305" y="-214.3" font-family="Times,serif" font-size="14.00">Term</text>
</a>
</g>
</g>
<!-- term&#45;&#45;ape -->
<g id="edge2" class="edge"><title>term&#45;&#45;ape</title>
<path fill="none" stroke="black" d="M332.281,-218C338.104,-218 343.927,-218 349.75,-218"/>
</g>
<!-- rp -->
<g id="node4" class="node"><title>rp</title>
<g id="a_node4"><a xlink:title="I know that a number and its reciprocal multiply to make one, and I can use this fact to get a coefficient 1">
<polygon fill="white" stroke="white" points="476,-153 422,-153 422,-117 476,-117 476,-153"/>
<text text-anchor="middle" x="449" y="-131.3" font-family="Times,serif" font-size="14.00">RP</text>
</a>
</g>
</g>
<!-- rp&#45;&#45;mpe -->
<g id="edge3" class="edge"><title>rp&#45;&#45;mpe</title>
<path fill="none" stroke="black" d="M421.75,-135C415.927,-135 410.104,-135 404.281,-135"/>
</g>
<!-- coefficient -->
<g id="node6" class="node"><title>coefficient</title>
<g id="a_node6"><a xlink:title="I can identify a coefficient">
<polygon fill="white" stroke="white" points="331.5,-153 254.5,-153 254.5,-117 331.5,-117 331.5,-153"/>
<text text-anchor="middle" x="293" y="-131.3" font-family="Times,serif" font-size="14.00">Coefficient</text>
</a>
</g>
</g>
<!-- coefficient&#45;&#45;mpe -->
<g id="edge4" class="edge"><title>coefficient&#45;&#45;mpe</title>
<path fill="none" stroke="black" d="M331.719,-135C337.733,-135 343.747,-135 349.76,-135"/>
</g>
<!-- aip -->
<g id="node7" class="node"><title>aip</title>
<g id="a_node7"><a xlink:title="I can simplify an expression with a term that is zero.">
<polygon fill="white" stroke="white" points="208,-70 144,-70 144,-32 208,-32 208,-70"/>
<text text-anchor="middle" x="176" y="-54.8" font-family="Times,serif" font-size="14.00">Additive</text>
<text text-anchor="middle" x="176" y="-39.8" font-family="Times,serif" font-size="14.00">Identity</text>
</a>
</g>
</g>
<!-- mip -->
<g id="node8" class="node"><title>mip</title>
<g id="a_node8"><a xlink:title="I can simplify an expression with a coefficient that is one.">
<polygon fill="white" stroke="white" points="126,-70 32,-70 32,-32 126,-32 126,-70"/>
<text text-anchor="middle" x="79" y="-54.8" font-family="Times,serif" font-size="14.00">Multiplicative</text>
<text text-anchor="middle" x="79" y="-39.8" font-family="Times,serif" font-size="14.00">Identity</text>
</a>
</g>
</g>
<!-- dp -->
<g id="node9" class="node"><title>dp</title>
<g id="a_node9"><a xlink:title="I can use the distributive property to simplify an expression containing a sum or difference inside parentheses">
<polygon fill="white" stroke="white" points="117.5,-153 36.5,-153 36.5,-117 117.5,-117 117.5,-153"/>
<text text-anchor="middle" x="77" y="-131.3" font-family="Times,serif" font-size="14.00">Distributive</text>
</a>
</g>
</g>
<!-- dp&#45;&#45;mip -->
<!-- cp -->
<g id="node10" class="node"><title>cp</title>
<g id="a_node10"><a xlink:title="I can use the commutative properties to change the order or addition or multiplication">
<polygon fill="white" stroke="white" points="222,-236 130,-236 130,-200 222,-200 222,-236"/>
<text text-anchor="middle" x="176" y="-214.3" font-family="Times,serif" font-size="14.00">Commutative</text>
</a>
</g>
</g>
<!-- ap -->
<g id="node11" class="node"><title>ap</title>
<g id="a_node11"><a xlink:title="I can use the associative properties to regroup terms or factors">
<polygon fill="white" stroke="white" points="112,-236 32,-236 32,-200 112,-200 112,-236"/>
<text text-anchor="middle" x="72" y="-214.3" font-family="Times,serif" font-size="14.00">Associative</text>
</a>
</g>
</g>
<!-- ap&#45;&#45;dp -->
<!-- ap&#45;&#45;cp -->
<!-- lg1 -->
<g id="node12" class="node"><title>lg1</title>
<g id="a_node12"><a xlink:title="Learning Goal 1: I understand that an inequality is a statement about the relative position of numbers on a number line">
<polygon fill="none" stroke="black" points="761,-445 675,-445 675,-409 761,-409 761,-445"/>
<text text-anchor="middle" x="718" y="-423.3" font-family="Times,serif" font-size="14.00">1. Inequality</text>
</a>
</g>
</g>
<!-- lg2 -->
<g id="node13" class="node"><title>lg2</title>
<g id="a_node13"><a xlink:title="Learning Goal 2: I can use the concept of a solution set to describe and represent inequalities">
<polygon fill="none" stroke="black" points="800.5,-373 635.5,-373 635.5,-337 800.5,-337 800.5,-373"/>
<text text-anchor="middle" x="718" y="-351.3" font-family="Times,serif" font-size="14.00">2. Solution to an inequality</text>
</a>
</g>
</g>
<!-- lg1&#45;&#45;lg2 -->
<g id="edge9" class="edge"><title>lg1&#45;&#45;lg2</title>
<path fill="none" stroke="black" d="M718,-408.697C718,-397.846 718,-383.917 718,-373.104"/>
</g>
<!-- lg3 -->
<g id="node14" class="node"><title>lg3</title>
<g id="a_node14"><a xlink:title="Learning Goal 2: I can use the addition and subtraction properties to solve inequalities">
<polygon fill="none" stroke="black" points="701.5,-236 500.5,-236 500.5,-200 701.5,-200 701.5,-236"/>
<text text-anchor="middle" x="601" y="-214.3" font-family="Times,serif" font-size="14.00">3. Addition property of inequality</text>
</a>
</g>
</g>
<!-- lg2&#45;&#45;lg3 -->
<g id="edge10" class="edge"><title>lg2&#45;&#45;lg3</title>
<path fill="none" stroke="black" d="M703.182,-336.902C680.799,-311.076 638.596,-262.38 616.067,-236.385"/>
</g>
<!-- lg4 -->
<g id="node15" class="node"><title>lg4</title>
<g id="a_node15"><a xlink:title="Learning Goal 3: I can use the multiplication and division properties to solve inequalities">
<polygon fill="none" stroke="black" points="950.5,-236 719.5,-236 719.5,-200 950.5,-200 950.5,-236"/>
<text text-anchor="middle" x="835" y="-214.3" font-family="Times,serif" font-size="14.00">4. Multiplication property of inequality</text>
</a>
</g>
</g>
<!-- lg2&#45;&#45;lg4 -->
<g id="edge11" class="edge"><title>lg2&#45;&#45;lg4</title>
<path fill="none" stroke="black" d="M732.818,-336.902C755.201,-311.076 797.404,-262.38 819.933,-236.385"/>
</g>
<!-- lg3&#45;&#45;lg5 -->
<g id="edge12" class="edge"><title>lg3&#45;&#45;lg5</title>
<path fill="none" stroke="black" d="M601,-199.822C601,-186.076 601,-166.893 601,-153.153"/>
</g>
<!-- lg4&#45;&#45;lg5 -->
<g id="edge13" class="edge"><title>lg4&#45;&#45;lg5</title>
<path fill="none" stroke="black" d="M785.661,-199.921C745.836,-186.136 690.078,-166.835 650.272,-153.056"/>
</g>
<!-- lg7 -->
<g id="node18" class="node"><title>lg7</title>
<g id="a_node18"><a xlink:title="Learning Goal 6: I can write and solve inequalities and interpret the solutions to answer questions about a situation">
<polygon fill="none" stroke="black" points="750,-69 622,-69 622,-33 750,-33 750,-69"/>
<text text-anchor="middle" x="686" y="-47.3" font-family="Times,serif" font-size="14.00">7. Solving problems</text>
</a>
</g>
</g>
<!-- lg5&#45;&#45;lg7 -->
<g id="edge14" class="edge"><title>lg5&#45;&#45;lg7</title>
<path fill="none" stroke="black" d="M619.026,-116.61C633.549,-102.6 653.854,-83.0114 668.291,-69.0838"/>
</g>
<!-- lg6 -->
<g id="node17" class="node"><title>lg6</title>
<g id="a_node17"><a xlink:title="Learning Goal 5: I can write inequalities that represent constraints in a situation">
<polygon fill="none" stroke="black" points="845,-153 697,-153 697,-117 845,-117 845,-153"/>
<text text-anchor="middle" x="771" y="-131.3" font-family="Times,serif" font-size="14.00">6. Inequality constraints</text>
</a>
</g>
</g>
<!-- lg6&#45;&#45;lg7 -->
<g id="edge15" class="edge"><title>lg6&#45;&#45;lg7</title>
<path fill="none" stroke="black" d="M752.974,-116.61C738.451,-102.6 718.146,-83.0114 703.709,-69.0838"/>
</g>
</g>
</svg>
